# Blender 5.0.1
# www.blender.org
mtllib Bat.mtl
o 円柱
v -0.000000 0.000000 -0.142184
v 0.000000 2.854460 -0.162945
v 0.027739 0.000000 -0.139452
v 0.031789 2.854460 -0.159814
v 0.054412 0.000000 -0.131361
v 0.062356 2.854460 -0.150541
v 0.078993 0.000000 -0.118222
v 0.090527 2.854460 -0.135484
v 0.100540 0.000000 -0.100540
v 0.115219 2.854460 -0.115219
v 0.118222 0.000000 -0.078993
v 0.135484 2.854460 -0.090527
v 0.131361 0.000000 -0.054412
v 0.150541 2.854460 -0.062356
v 0.139452 0.000000 -0.027739
v 0.159814 2.854460 -0.031789
v 0.142184 0.000000 -0.000000
v 0.162945 2.854460 0.000000
v 0.139452 0.000000 0.027739
v 0.159814 2.854460 0.031789
v 0.131361 0.000000 0.054412
v 0.150541 2.854460 0.062356
v 0.118222 0.000000 0.078993
v 0.135484 2.854460 0.090527
v 0.100540 0.000000 0.100540
v 0.115219 2.854460 0.115219
v 0.078993 0.000000 0.118222
v 0.090527 2.854460 0.135484
v 0.054412 0.000000 0.131361
v 0.062356 2.854460 0.150541
v 0.027739 0.000000 0.139452
v 0.031789 2.854460 0.159814
v -0.000000 0.000000 0.142184
v 0.000000 2.854460 0.162945
v -0.027739 0.000000 0.139452
v -0.031789 2.854460 0.159814
v -0.054412 0.000000 0.131361
v -0.062356 2.854460 0.150541
v -0.078993 0.000000 0.118222
v -0.090527 2.854460 0.135484
v -0.100540 0.000000 0.100540
v -0.115219 2.854460 0.115219
v -0.118222 0.000000 0.078993
v -0.135484 2.854460 0.090527
v -0.131361 0.000000 0.054412
v -0.150541 2.854460 0.062356
v -0.139452 0.000000 0.027739
v -0.159814 2.854460 0.031789
v -0.142184 0.000000 -0.000000
v -0.162945 2.854460 0.000000
v -0.139452 0.000000 -0.027739
v -0.159814 2.854460 -0.031789
v -0.131361 0.000000 -0.054412
v -0.150541 2.854460 -0.062356
v -0.118222 0.000000 -0.078993
v -0.135484 2.854460 -0.090527
v -0.100540 0.000000 -0.100540
v -0.115219 2.854460 -0.115219
v -0.078993 0.000000 -0.118222
v -0.090527 2.854460 -0.135484
v -0.054412 0.000000 -0.131361
v -0.062356 2.854460 -0.150541
v -0.027739 0.000000 -0.139452
v -0.031789 2.854460 -0.159814
v -0.000000 0.342292 -0.081166
v 0.015835 0.342292 -0.079606
v 0.031061 0.342292 -0.074988
v 0.045093 0.342292 -0.067487
v 0.057393 0.342292 -0.057393
v 0.067487 0.342292 -0.045093
v 0.074988 0.342292 -0.031061
v 0.079606 0.342292 -0.015835
v 0.081166 0.342292 -0.000000
v 0.079606 0.342292 0.015835
v 0.074988 0.342292 0.031061
v 0.067487 0.342292 0.045093
v 0.057393 0.342292 0.057393
v 0.045093 0.342292 0.067487
v 0.031061 0.342292 0.074988
v 0.015835 0.342292 0.079606
v -0.000000 0.342292 0.081166
v -0.015835 0.342292 0.079606
v -0.031061 0.342292 0.074988
v -0.045093 0.342292 0.067487
v -0.057393 0.342292 0.057393
v -0.067487 0.342292 0.045093
v -0.074988 0.342292 0.031061
v -0.079606 0.342292 0.015835
v -0.081166 0.342292 -0.000000
v -0.079606 0.342292 -0.015835
v -0.074988 0.342292 -0.031061
v -0.067487 0.342292 -0.045093
v -0.057393 0.342292 -0.057393
v -0.045093 0.342292 -0.067487
v -0.031061 0.342292 -0.074988
v -0.015835 0.342292 -0.079606
v -0.000000 0.711912 -0.075222
v 0.014675 0.711912 -0.073777
v 0.028786 0.711912 -0.069496
v 0.041791 0.711912 -0.062545
v 0.053190 0.711912 -0.053190
v 0.062545 0.711912 -0.041791
v 0.069496 0.711912 -0.028786
v 0.073777 0.711912 -0.014675
v 0.075222 0.711912 0.000000
v 0.073777 0.711912 0.014675
v 0.069496 0.711912 0.028786
v 0.062545 0.711912 0.041791
v 0.053190 0.711912 0.053190
v 0.041791 0.711912 0.062545
v 0.028786 0.711912 0.069496
v 0.014675 0.711912 0.073777
v -0.000000 0.711912 0.075222
v -0.014675 0.711912 0.073777
v -0.028786 0.711912 0.069496
v -0.041791 0.711912 0.062545
v -0.053190 0.711912 0.053190
v -0.062545 0.711912 0.041791
v -0.069496 0.711912 0.028786
v -0.073777 0.711912 0.014675
v -0.075222 0.711912 0.000000
v -0.073777 0.711912 -0.014675
v -0.069496 0.711912 -0.028786
v -0.062545 0.711912 -0.041791
v -0.053190 0.711912 -0.053190
v -0.041791 0.711912 -0.062545
v -0.028786 0.711912 -0.069496
v -0.014675 0.711912 -0.073777
vn 0.0979 -0.0407 -0.9944
vn 0.2900 -0.0407 -0.9561
vn 0.4710 -0.0407 -0.8812
vn 0.6339 -0.0407 -0.7724
vn 0.7724 -0.0407 -0.6339
vn 0.8812 -0.0407 -0.4710
vn 0.9561 -0.0407 -0.2900
vn 0.9944 -0.0407 -0.0979
vn 0.9944 -0.0407 0.0979
vn 0.9561 -0.0407 0.2900
vn 0.8812 -0.0407 0.4710
vn 0.7724 -0.0407 0.6339
vn 0.6339 -0.0407 0.7724
vn 0.4710 -0.0407 0.8812
vn 0.2900 -0.0407 0.9561
vn 0.0979 -0.0407 0.9944
vn -0.0979 -0.0407 0.9944
vn -0.2900 -0.0407 0.9561
vn -0.4710 -0.0407 0.8812
vn -0.6339 -0.0407 0.7724
vn -0.7724 -0.0407 0.6339
vn -0.8812 -0.0407 0.4710
vn -0.9561 -0.0407 0.2900
vn -0.9944 -0.0407 0.0979
vn -0.9944 -0.0407 -0.0979
vn -0.9561 -0.0407 -0.2900
vn -0.8812 -0.0407 -0.4710
vn -0.7724 -0.0407 -0.6339
vn -0.6339 -0.0407 -0.7724
vn -0.4710 -0.0407 -0.8812
vn -0.0000 1.0000 -0.0000
vn -0.2900 -0.0407 -0.9561
vn -0.0979 -0.0407 -0.9944
vn -0.0000 -1.0000 -0.0000
vn -0.0965 0.1747 -0.9799
vn -0.2858 0.1747 -0.9422
vn -0.4641 0.1747 -0.8684
vn -0.6246 0.1747 -0.7611
vn -0.7611 0.1747 -0.6246
vn -0.8684 0.1747 -0.4641
vn -0.9422 0.1747 -0.2858
vn -0.9799 0.1747 -0.0965
vn -0.9799 0.1747 0.0965
vn -0.9422 0.1747 0.2858
vn -0.8684 0.1747 0.4641
vn -0.7611 0.1747 0.6246
vn -0.6246 0.1747 0.7611
vn -0.4641 0.1747 0.8684
vn -0.2858 0.1747 0.9422
vn -0.0965 0.1747 0.9799
vn 0.0965 0.1747 0.9799
vn 0.2858 0.1747 0.9422
vn 0.4641 0.1747 0.8684
vn 0.6246 0.1747 0.7611
vn 0.7611 0.1747 0.6246
vn 0.8684 0.1747 0.4641
vn 0.9422 0.1747 0.2858
vn 0.9799 0.1747 0.0965
vn 0.9799 0.1747 -0.0965
vn 0.9422 0.1747 -0.2858
vn 0.8684 0.1747 -0.4641
vn 0.7611 0.1747 -0.6246
vn 0.6246 0.1747 -0.7611
vn 0.4641 0.1747 -0.8684
vn 0.2858 0.1747 -0.9422
vn 0.0965 0.1747 -0.9799
vn -0.0980 0.0160 -0.9951
vn -0.2902 0.0160 -0.9568
vn -0.4713 0.0160 -0.8818
vn -0.6343 0.0160 -0.7729
vn -0.7729 0.0160 -0.6343
vn -0.8818 0.0160 -0.4713
vn -0.9568 0.0160 -0.2902
vn -0.9951 0.0160 -0.0980
vn -0.9951 0.0160 0.0980
vn -0.9568 0.0160 0.2902
vn -0.8818 0.0160 0.4713
vn -0.7729 0.0160 0.6343
vn -0.6343 0.0160 0.7729
vn -0.4713 0.0160 0.8818
vn -0.2902 0.0160 0.9568
vn -0.0980 0.0160 0.9951
vn 0.0980 0.0160 0.9951
vn 0.2902 0.0160 0.9568
vn 0.4713 0.0160 0.8818
vn 0.6343 0.0160 0.7729
vn 0.7729 0.0160 0.6343
vn 0.8818 0.0160 0.4713
vn 0.9568 0.0160 0.2902
vn 0.9951 0.0160 0.0980
vn 0.9951 0.0160 -0.0980
vn 0.9568 0.0160 -0.2902
vn 0.8818 0.0160 -0.4713
vn 0.7729 0.0160 -0.6343
vn 0.6343 0.0160 -0.7729
vn 0.4713 0.0160 -0.8818
vn 0.2902 0.0160 -0.9568
vn 0.0980 0.0160 -0.9951
vt 0.375042 0.000166
vt 0.500000 0.031406
vt 0.375042 0.031406
vt 0.375042 0.062645
vt 0.500000 0.062645
vt 0.375041 0.093885
vt 0.500000 0.093885
vt 0.375042 0.125125
vt 0.500000 0.125125
vt 0.375042 0.156364
vt 0.500000 0.156364
vt 0.375042 0.187604
vt 0.500000 0.187604
vt 0.375042 0.218843
vt 0.500000 0.218843
vt 0.375042 0.250083
vt 0.500000 0.250083
vt 0.375042 0.281323
vt 0.500000 0.281323
vt 0.375042 0.312562
vt 0.500000 0.312562
vt 0.375041 0.343802
vt 0.500000 0.343802
vt 0.375042 0.375041
vt 0.500000 0.375041
vt 0.375042 0.406281
vt 0.500000 0.406281
vt 0.375042 0.437521
vt 0.500000 0.437521
vt 0.375042 0.468760
vt 0.500000 0.468760
vt 0.375042 0.500000
vt 0.500000 0.531240
vt 0.375042 0.531240
vt 0.375042 0.562479
vt 0.500000 0.562479
vt 0.375041 0.593719
vt 0.500000 0.593719
vt 0.375042 0.624958
vt 0.500000 0.624958
vt 0.375042 0.656198
vt 0.500000 0.687438
vt 0.375042 0.687438
vt 0.375042 0.718677
vt 0.500000 0.718677
vt 0.375042 0.749917
vt 0.500000 0.781156
vt 0.375042 0.781156
vt 0.500000 0.812396
vt 0.375042 0.812396
vt 0.375041 0.843636
vt 0.500000 0.874875
vt 0.375042 0.874875
vt 0.375042 0.906115
vt 0.500000 0.906115
vt 0.375042 0.937355
vt 0.509508 0.786438
vt 0.669452 0.487204
vt 0.968687 0.647148
vt 0.500000 0.937355
vt 0.375042 0.968594
vt 0.500000 0.968594
vt 0.375042 0.999834
vt 0.500332 0.262448
vt 0.586894 0.424392
vt 0.762614 0.477696
vt 0.250083 0.968594
vt 0.000166 0.999834
vt 0.000166 0.968594
vt 0.000166 0.937355
vt 0.250083 0.906115
vt 0.000166 0.906115
vt 0.250083 0.874875
vt 0.000166 0.874875
vt 0.000166 0.843636
vt 0.000166 0.812396
vt 0.250083 0.843636
vt 0.250083 0.781156
vt 0.000166 0.781156
vt 0.250083 0.749917
vt 0.000166 0.749917
vt 0.250083 0.718677
vt 0.000166 0.718677
vt 0.000166 0.687438
vt 0.250083 0.656198
vt 0.000166 0.656198
vt 0.250083 0.624958
vt 0.000166 0.624958
vt 0.000166 0.593719
vt 0.000166 0.562479
vt 0.250083 0.593719
vt 0.250083 0.531240
vt 0.000166 0.531240
vt 0.250083 0.500000
vt 0.000166 0.500000
vt 0.250083 0.468760
vt 0.000166 0.468760
vt 0.000166 0.437521
vt 0.250083 0.406281
vt 0.000166 0.406281
vt 0.250083 0.375041
vt 0.000166 0.375041
vt 0.000166 0.343802
vt 0.000166 0.312562
vt 0.250083 0.343802
vt 0.250083 0.281323
vt 0.000166 0.281323
vt 0.250083 0.250083
vt 0.000166 0.250083
vt 0.250083 0.218843
vt 0.000166 0.218843
vt 0.000166 0.187604
vt 0.250083 0.156364
vt 0.000166 0.156364
vt 0.250083 0.125125
vt 0.000166 0.125125
vt 0.000166 0.093885
vt 0.000166 0.062645
vt 0.250083 0.093885
vt 0.250083 0.031406
vt 0.000166 0.031406
vt 0.250083 0.000166
vt 0.000166 0.000166
vt 0.250083 0.999834
vt 0.250083 0.937355
vt 0.250083 0.812396
vt 0.250083 0.687438
vt 0.250083 0.562479
vt 0.250083 0.437521
vt 0.250083 0.312562
vt 0.250083 0.187604
vt 0.250083 0.062645
vt 0.500000 0.000166
vt 0.500000 0.500000
vt 0.500000 0.656198
vt 0.500000 0.749917
vt 0.500000 0.843636
vt 0.977862 0.693277
vt 0.977862 0.740310
vt 0.968687 0.786439
vt 0.950688 0.829891
vt 0.924558 0.868997
vt 0.891301 0.902254
vt 0.852195 0.928384
vt 0.808742 0.946383
vt 0.762614 0.955558
vt 0.715581 0.955558
vt 0.669452 0.946383
vt 0.626000 0.928384
vt 0.586893 0.902254
vt 0.553636 0.868997
vt 0.527507 0.829891
vt 0.500332 0.740310
vt 0.527507 0.603696
vt 0.500332 0.693277
vt 0.509508 0.647148
vt 0.553637 0.564590
vt 0.586894 0.531332
vt 0.626000 0.505203
vt 0.715581 0.478028
vt 0.852195 0.505203
vt 0.762614 0.478028
vt 0.808743 0.487204
vt 0.891301 0.531333
vt 0.924558 0.564590
vt 0.950688 0.603696
vt 0.500000 0.999834
vt 0.808743 0.468520
vt 0.852195 0.450522
vt 0.891301 0.424392
vt 0.924558 0.391135
vt 0.950688 0.352029
vt 0.968687 0.308576
vt 0.977862 0.262447
vt 0.977862 0.215415
vt 0.968687 0.169286
vt 0.950688 0.125833
vt 0.924558 0.086727
vt 0.891301 0.053470
vt 0.852195 0.027340
vt 0.808742 0.009342
vt 0.762614 0.000166
vt 0.715581 0.000166
vt 0.669452 0.009342
vt 0.626000 0.027340
vt 0.586893 0.053470
vt 0.553636 0.086727
vt 0.527507 0.125834
vt 0.509508 0.169286
vt 0.500332 0.215415
vt 0.509508 0.308576
vt 0.527507 0.352029
vt 0.553636 0.391135
vt 0.626000 0.450522
vt 0.669452 0.468521
vt 0.715581 0.477696
s 0
usemtl マテリアル
f 97/1/1 4/2/1 98/3/1
f 4/2/2 99/4/2 98/3/2
f 6/5/3 100/6/3 99/4/3
f 8/7/4 101/8/4 100/6/4
f 10/9/5 102/10/5 101/8/5
f 12/11/6 103/12/6 102/10/6
f 14/13/7 104/14/7 103/12/7
f 16/15/8 105/16/8 104/14/8
f 18/17/9 106/18/9 105/16/9
f 20/19/10 107/20/10 106/18/10
f 22/21/11 108/22/11 107/20/11
f 24/23/12 109/24/12 108/22/12
f 26/25/13 110/26/13 109/24/13
f 28/27/14 111/28/14 110/26/14
f 30/29/15 112/30/15 111/28/15
f 32/31/16 113/32/16 112/30/16
f 113/32/17 36/33/17 114/34/17
f 36/33/18 115/35/18 114/34/18
f 38/36/19 116/37/19 115/35/19
f 40/38/20 117/39/20 116/37/20
f 42/40/21 118/41/21 117/39/21
f 118/41/22 46/42/22 119/43/22
f 46/42/23 120/44/23 119/43/23
f 48/45/24 121/46/24 120/44/24
f 121/46/25 52/47/25 122/48/25
f 122/48/26 54/49/26 123/50/26
f 54/49/27 124/51/27 123/50/27
f 124/51/28 58/52/28 125/53/28
f 58/52/29 126/54/29 125/53/29
f 60/55/30 127/56/30 126/54/30
f 38/57/31 22/58/31 6/59/31
f 62/60/32 128/61/32 127/56/32
f 64/62/33 97/63/33 128/61/33
f 47/64/34 55/65/34 63/66/34
f 96/67/35 1/68/35 63/69/35
f 61/70/36 96/67/36 63/69/36
f 94/71/37 61/70/37 59/72/37
f 93/73/38 59/72/38 57/74/38
f 55/75/39 93/73/39 57/74/39
f 53/76/40 92/77/40 55/75/40
f 90/78/41 53/76/41 51/79/41
f 89/80/42 51/79/42 49/81/42
f 88/82/43 49/81/43 47/83/43
f 45/84/44 88/82/44 47/83/44
f 86/85/45 45/84/45 43/86/45
f 85/87/46 43/86/46 41/88/46
f 39/89/47 85/87/47 41/88/47
f 37/90/48 84/91/48 39/89/48
f 82/92/49 37/90/49 35/93/49
f 81/94/50 35/93/50 33/95/50
f 80/96/51 33/95/51 31/97/51
f 29/98/52 80/96/52 31/97/52
f 78/99/53 29/98/53 27/100/53
f 77/101/54 27/100/54 25/102/54
f 23/103/55 77/101/55 25/102/55
f 21/104/56 76/105/56 23/103/56
f 74/106/57 21/104/57 19/107/57
f 73/108/58 19/107/58 17/109/58
f 72/110/59 17/109/59 15/111/59
f 13/112/60 72/110/60 15/111/60
f 70/113/61 13/112/61 11/114/61
f 69/115/62 11/114/62 9/116/62
f 7/117/63 69/115/63 9/116/63
f 5/118/64 68/119/64 7/117/64
f 66/120/65 5/118/65 3/121/65
f 65/122/66 3/121/66 1/123/66
f 96/67/67 97/63/67 65/124/67
f 95/125/68 128/61/68 96/67/68
f 126/54/69 95/125/69 94/71/69
f 125/53/70 94/71/70 93/73/70
f 124/51/71 93/73/71 92/77/71
f 91/126/72 124/51/72 92/77/72
f 122/48/73 91/126/73 90/78/73
f 121/46/74 90/78/74 89/80/74
f 120/44/75 89/80/75 88/82/75
f 119/43/76 88/82/76 87/127/76
f 118/41/77 87/127/77 86/85/77
f 117/39/78 86/85/78 85/87/78
f 116/37/79 85/87/79 84/91/79
f 115/35/80 84/91/80 83/128/80
f 114/34/81 83/128/81 82/92/81
f 113/32/82 82/92/82 81/94/82
f 112/30/83 81/94/83 80/96/83
f 111/28/84 80/96/84 79/129/84
f 110/26/85 79/129/85 78/99/85
f 109/24/86 78/99/86 77/101/86
f 108/22/87 77/101/87 76/105/87
f 107/20/88 76/105/88 75/130/88
f 106/18/89 75/130/89 74/106/89
f 105/16/90 74/106/90 73/108/90
f 104/14/91 73/108/91 72/110/91
f 71/131/92 104/14/92 72/110/92
f 70/113/93 103/12/93 71/131/93
f 69/115/94 102/10/94 70/113/94
f 68/119/95 101/8/95 69/115/95
f 67/132/96 100/6/96 68/119/96
f 98/3/97 67/132/97 66/120/97
f 65/122/98 98/3/98 66/120/98
f 97/1/1 2/133/1 4/2/1
f 4/2/2 6/5/2 99/4/2
f 6/5/3 8/7/3 100/6/3
f 8/7/4 10/9/4 101/8/4
f 10/9/5 12/11/5 102/10/5
f 12/11/6 14/13/6 103/12/6
f 14/13/7 16/15/7 104/14/7
f 16/15/8 18/17/8 105/16/8
f 18/17/9 20/19/9 106/18/9
f 20/19/10 22/21/10 107/20/10
f 22/21/11 24/23/11 108/22/11
f 24/23/12 26/25/12 109/24/12
f 26/25/13 28/27/13 110/26/13
f 28/27/14 30/29/14 111/28/14
f 30/29/15 32/31/15 112/30/15
f 32/31/16 34/134/16 113/32/16
f 113/32/17 34/134/17 36/33/17
f 36/33/18 38/36/18 115/35/18
f 38/36/19 40/38/19 116/37/19
f 40/38/20 42/40/20 117/39/20
f 42/40/21 44/135/21 118/41/21
f 118/41/22 44/135/22 46/42/22
f 46/42/23 48/45/23 120/44/23
f 48/45/24 50/136/24 121/46/24
f 121/46/25 50/136/25 52/47/25
f 122/48/26 52/47/26 54/49/26
f 54/49/27 56/137/27 124/51/27
f 124/51/28 56/137/28 58/52/28
f 58/52/29 60/55/29 126/54/29
f 60/55/30 62/60/30 127/56/30
f 6/59/31 4/138/31 2/139/31
f 2/139/31 64/140/31 6/59/31
f 64/140/31 62/141/31 6/59/31
f 62/141/31 60/142/31 58/143/31
f 58/143/31 56/144/31 54/145/31
f 54/145/31 52/146/31 50/147/31
f 50/147/31 48/148/31 54/145/31
f 48/148/31 46/149/31 54/145/31
f 46/149/31 44/150/31 42/151/31
f 42/151/31 40/152/31 38/57/31
f 38/57/31 36/153/31 30/154/31
f 36/153/31 34/155/31 30/154/31
f 34/155/31 32/156/31 30/154/31
f 30/154/31 28/157/31 26/158/31
f 26/158/31 24/159/31 22/58/31
f 22/58/31 20/160/31 14/161/31
f 20/160/31 18/162/31 14/161/31
f 18/162/31 16/163/31 14/161/31
f 14/161/31 12/164/31 10/165/31
f 10/165/31 8/166/31 6/59/31
f 62/141/31 58/143/31 6/59/31
f 58/143/31 54/145/31 6/59/31
f 46/149/31 42/151/31 54/145/31
f 42/151/31 38/57/31 54/145/31
f 30/154/31 26/158/31 38/57/31
f 26/158/31 22/58/31 38/57/31
f 14/161/31 10/165/31 22/58/31
f 10/165/31 6/59/31 22/58/31
f 6/59/31 54/145/31 38/57/31
f 62/60/32 64/62/32 128/61/32
f 64/62/33 2/167/33 97/63/33
f 63/66/34 1/168/34 3/169/34
f 3/169/34 5/170/34 63/66/34
f 5/170/34 7/171/34 63/66/34
f 7/171/34 9/172/34 11/173/34
f 11/173/34 13/174/34 7/171/34
f 13/174/34 15/175/34 7/171/34
f 15/175/34 17/176/34 19/177/34
f 19/177/34 21/178/34 15/175/34
f 21/178/34 23/179/34 15/175/34
f 23/179/34 25/180/34 27/181/34
f 27/181/34 29/182/34 23/179/34
f 29/182/34 31/183/34 23/179/34
f 31/183/34 33/184/34 35/185/34
f 35/185/34 37/186/34 31/183/34
f 37/186/34 39/187/34 31/183/34
f 39/187/34 41/188/34 43/189/34
f 43/189/34 45/190/34 39/187/34
f 45/190/34 47/64/34 39/187/34
f 47/64/34 49/191/34 51/192/34
f 51/192/34 53/193/34 47/64/34
f 53/193/34 55/65/34 47/64/34
f 55/65/34 57/194/34 59/195/34
f 59/195/34 61/196/34 55/65/34
f 61/196/34 63/66/34 55/65/34
f 63/66/34 7/171/34 31/183/34
f 7/171/34 15/175/34 31/183/34
f 15/175/34 23/179/34 31/183/34
f 31/183/34 39/187/34 63/66/34
f 39/187/34 47/64/34 63/66/34
f 96/67/35 65/124/35 1/68/35
f 61/70/36 95/125/36 96/67/36
f 94/71/37 95/125/37 61/70/37
f 93/73/38 94/71/38 59/72/38
f 55/75/39 92/77/39 93/73/39
f 53/76/40 91/126/40 92/77/40
f 90/78/41 91/126/41 53/76/41
f 89/80/42 90/78/42 51/79/42
f 88/82/43 89/80/43 49/81/43
f 45/84/44 87/127/44 88/82/44
f 86/85/45 87/127/45 45/84/45
f 85/87/46 86/85/46 43/86/46
f 39/89/47 84/91/47 85/87/47
f 37/90/48 83/128/48 84/91/48
f 82/92/49 83/128/49 37/90/49
f 81/94/50 82/92/50 35/93/50
f 80/96/51 81/94/51 33/95/51
f 29/98/52 79/129/52 80/96/52
f 78/99/53 79/129/53 29/98/53
f 77/101/54 78/99/54 27/100/54
f 23/103/55 76/105/55 77/101/55
f 21/104/56 75/130/56 76/105/56
f 74/106/57 75/130/57 21/104/57
f 73/108/58 74/106/58 19/107/58
f 72/110/59 73/108/59 17/109/59
f 13/112/60 71/131/60 72/110/60
f 70/113/61 71/131/61 13/112/61
f 69/115/62 70/113/62 11/114/62
f 7/117/63 68/119/63 69/115/63
f 5/118/64 67/132/64 68/119/64
f 66/120/65 67/132/65 5/118/65
f 65/122/66 66/120/66 3/121/66
f 96/67/67 128/61/67 97/63/67
f 95/125/68 127/56/68 128/61/68
f 126/54/69 127/56/69 95/125/69
f 125/53/70 126/54/70 94/71/70
f 124/51/71 125/53/71 93/73/71
f 91/126/72 123/50/72 124/51/72
f 122/48/73 123/50/73 91/126/73
f 121/46/74 122/48/74 90/78/74
f 120/44/75 121/46/75 89/80/75
f 119/43/76 120/44/76 88/82/76
f 118/41/77 119/43/77 87/127/77
f 117/39/78 118/41/78 86/85/78
f 116/37/79 117/39/79 85/87/79
f 115/35/80 116/37/80 84/91/80
f 114/34/81 115/35/81 83/128/81
f 113/32/82 114/34/82 82/92/82
f 112/30/83 113/32/83 81/94/83
f 111/28/84 112/30/84 80/96/84
f 110/26/85 111/28/85 79/129/85
f 109/24/86 110/26/86 78/99/86
f 108/22/87 109/24/87 77/101/87
f 107/20/88 108/22/88 76/105/88
f 106/18/89 107/20/89 75/130/89
f 105/16/90 106/18/90 74/106/90
f 104/14/91 105/16/91 73/108/91
f 71/131/92 103/12/92 104/14/92
f 70/113/93 102/10/93 103/12/93
f 69/115/94 101/8/94 102/10/94
f 68/119/95 100/6/95 101/8/95
f 67/132/96 99/4/96 100/6/96
f 98/3/97 99/4/97 67/132/97
f 65/122/98 97/1/98 98/3/98
