# Blender 5.0.1
# www.blender.org
mtllib BatFieldBox.mtl
o Cube.002
v -0.500000 0.500000 0.500000
v -0.500000 -0.500000 0.500000
v -0.500000 0.500000 -0.500000
v -0.500000 -0.500000 -0.500000
v 0.500000 0.500000 0.500000
v 0.500000 -0.500000 0.500000
v 0.500000 0.500000 -0.500000
v 0.500000 -0.500000 -0.500000
vn -0.0000 1.0000 -0.0000
vn -0.0000 -0.0000 -1.0000
vn 1.0000 -0.0000 -0.0000
vn -0.0000 -1.0000 -0.0000
vn -1.0000 -0.0000 -0.0000
vn -0.0000 -0.0000 1.0000
vt 0.625000 0.749957
vt 0.375043 0.999913
vt 0.375043 0.749957
vt 0.375043 0.000087
vt 0.625000 0.250043
vt 0.375043 0.250043
vt 0.874957 0.749957
vt 0.625000 0.500000
vt 0.874957 0.500000
vt 0.375043 0.500000
vt 0.125087 0.500000
vt 0.625000 0.999913
vt 0.625000 0.000087
vt 0.125087 0.749957
s 1
usemtl マテリアル
f 5/1/1 3/2/1 1/3/1
f 3/4/2 8/5/2 4/6/2
f 7/7/3 6/8/3 8/9/3
f 2/10/4 8/5/4 6/8/4
f 1/3/5 4/11/5 2/10/5
f 5/1/6 2/10/6 6/8/6
f 5/1/1 7/12/1 3/2/1
f 3/4/2 7/13/2 8/5/2
f 7/7/3 5/1/3 6/8/3
f 2/10/4 4/6/4 8/5/4
f 1/3/5 3/14/5 4/11/5
f 5/1/6 1/3/6 2/10/6
